<svg xmlns="http://www.w3.org/2000/svg" viewBox="0 0 117.31758 135.46667"><g transform="matrix(2.0885284,0,0,2.0885284,27.291413,36.135823)"><path fill="#231f20" d="m 15,15 c 0,-2.9 -0.8,-4.4 -0.9,-4.5 H 2 c -0.5,1.4 -0.7,2.9 -0.7,4.5 0,1.6 0.2,3.1 0.7,4.5 H 14.1 C 14.6,18.8 15,17.9 15,15 Z" /><g transform="translate(6.375,21)"><path fill="#00bfb3" d="M 16.9,0 H 7.1 C 6.8,0.7 6.5,1.3 6.1,1.9 5.5,2.8 4.9,3.7 4.1,4.4 3.9,4.7 2.2,6.1 1.6,6.5 4,8.1 6.9,9 10,9 15.2,9 19.8,6.3 22.5,2.3 21,0.9 19.1,0 16.9,0" /></g><path fill="#019b8f" d="m 13.5,21 h -11 c 1.2,2.7 3.1,4.9 5.5,6.5 0,0 4.2,-2.5 5.5,-6.5 z" /><path fill="#f9b110" d="M 10.5,4.5 C 10.3,4.3 10,4 9.8,3.8 9.3,3.3 8.7,2.9 8.1,2.5 5.6,4.1 3.7,6.3 2.6,9 h 11 C 13.3,8.3 13,7.7 12.6,7.1 12,6.2 11.3,5.3 10.5,4.5" /><path fill="#fed10a" d="m 16.3,0.1 c -3,0 -5.9,0.8 -8.3,2.4 0.6,0.4 1.2,0.9 1.7,1.4 0.3,0.2 0.6,0.5 0.8,0.7 0.8,0.8 1.4,1.6 2,2.5 0.4,0.6 0.7,1.3 1,1.9 h 9.8 C 25.4,9 27.4,8.1 28.8,6.7 26.1,2.8 21.5,0.1 16.3,0.1" /><path fill="#00a9e5" d="m 22,10.5 h -7.9 c 0,0 0.8,1.7 0.8,4.5 0,2.8 -0.8,4.5 -0.8,4.5 H 22 c 2.5,0 4.5,-2 4.5,-4.5 -0.1,-2.5 -2.1,-4.5 -4.5,-4.5" /></g><path fill="none" stroke="#0078a0" stroke-width="12" d="m 58.658792,6.7627869 52.802038,30.4852731 0,60.970543 L 58.658789,128.70387 5.8567507,98.2186 l 1.7e-6,-60.970543 z" /></svg>
