<svg xmlns="http://www.w3.org/2000/svg" viewBox="0 0 117.31758 135.46667"><path stroke-width="0.18044201" d="m 82.12109,71.608815 c -2.92064,0 -5.53903,1.29395 -7.33208,3.33114 l -4.5946,-3.25265 c 0.48774,-1.34285 0.76778,-2.78476 0.76778,-4.29398 0,-1.48305 -0.2703,-2.90078 -0.74197,-4.22378 l 4.5843,-3.21819 c 1.79288,2.02691 4.40441,3.31382 7.31657,3.31382 5.3907,0 9.77707,-4.38564 9.77707,-9.77707 0,-5.39143 -4.38637,-9.77707 -9.77707,-9.77707 -5.39071,0 -9.77707,4.38564 -9.77707,9.77707 0,0.965 0.14579,1.89554 0.40744,2.77682 l -4.58738,3.21981 c -1.9163,-2.37732 -4.67543,-4.03721 -7.8191,-4.54389 v -5.52875 c 4.42877,-0.93017 7.76569,-4.86507 7.76569,-9.56685 0,-5.39143 -4.38637,-9.77707 -9.77707,-9.77707 -5.39071,0 -9.77707,4.38564 -9.77707,9.77707 0,4.6388 3.25048,8.52516 7.59065,9.52174 v 5.60056 c -5.92319,1.03971 -10.44218,6.20901 -10.44218,12.42578 0,6.24708 4.56374,11.43533 10.5297,12.43967 v 5.91381 c -4.38456,0.96374 -7.67817,4.87392 -7.67817,9.5443 0,5.391425 4.38636,9.777065 9.77707,9.777065 5.3907,0 9.77707,-4.38564 9.77707,-9.777065 0,-4.67038 -3.29361,-8.58056 -7.67817,-9.5443 v -5.91399 a 12.624625,12.624625 0 0 0 7.68683,-4.47063 l 4.62527,3.27376 c -0.25677,0.87334 -0.40058,1.79468 -0.40058,2.74994 0,5.39142 4.38636,9.77707 9.77707,9.77707 5.3907,0 9.77707,-4.38565 9.77707,-9.77707 0,-5.39143 -4.38637,-9.77707 -9.77707,-9.77707 z m 0,-22.8611 c 2.61406,0 4.74021,2.12705 4.74021,4.74039 0,2.61334 -2.12615,4.74021 -4.74021,4.74021 -2.61407,0 -4.74021,-2.12687 -4.74021,-4.74021 0,-2.61334 2.12614,-4.74039 4.74021,-4.74039 z m -28.52788,-8.90247 c 0,-2.61334 2.12632,-4.74021 4.74039,-4.74021 2.61406,0 4.74021,2.12687 4.74021,4.74021 0,2.61334 -2.12615,4.74021 -4.74021,4.74021 -2.61407,0 -4.74039,-2.12687 -4.74039,-4.74021 z m 9.4806,55.44586 c 0,2.61334 -2.12615,4.740205 -4.74021,4.740205 -2.61407,0 -4.74039,-2.126865 -4.74039,-4.740205 0,-2.61334 2.12632,-4.74021 4.74039,-4.74021 2.61406,0 4.74021,2.12687 4.74021,4.74021 z m -4.74057,-21.28674 c -3.64583,0 -6.61176,-2.96539 -6.61176,-6.61104 0,-3.64583 2.96593,-6.61175 6.61176,-6.61175 3.64565,0 6.61157,2.96592 6.61157,6.61175 0,3.64565 -2.96592,6.61104 -6.61157,6.61104 z m 23.78785,12.12191 c -2.61407,0 -4.74021,-2.12705 -4.74021,-4.74039 0,-2.61334 2.12614,-4.74021 4.74021,-4.74021 2.61406,0 4.74021,2.12687 4.74021,4.74021 0,2.61334 -2.12615,4.74039 -4.74021,4.74039 z" /><path stroke-width="12" stroke="black" fill="none" d="m 58.658792,6.7627869 52.802038,30.4852731 0,60.970543 L 58.658789,128.70387 5.8567507,98.2186 l 1.7e-6,-60.970543 z" /></svg>
