<svg xmlns="http://www.w3.org/2000/svg" viewBox="0 0 375 300">
  <path fill="#00008b" stroke="#00008b" stroke-width="5" stroke-linecap="round" d="M 372.49965,149.99997 A 184.99968,147.49973 0 0 1 187.49997,297.49969 184.99968,147.49973 0 0 1 2.5002899,149.99997 184.99968,147.49973 0 0 1 187.49997,2.5002441 184.99968,147.49973 0 0 1 372.49965,149.99997 Z"/>
  <g fill="#fff" stroke="#fff" stroke-width="5" font-style="italic" font-weight="bold" font-size="240px" line-height="31px" font-family="sans-serif" letter-spacing="0px" word-spacing="0px" aria-label="FA">
    <path fill="#fff" stroke="#fff" stroke-width="5" d="M 74.109177,48.499996 H 195.77696 l -6.68118,34.109177 h -76.54052 l -6.32954,32.585397 h 72.08641 l -6.7984,34.10918 H 99.544542 L 85.127261,223.5 H 40 Z"/>
    <path fill="#fff" stroke="#fff" stroke-width="5" d="M 286.03148,191.61788 H 216.17214 L 198.82452,223.5 h -46.2994 L 251.45345,48.499996 h 51.57402 L 333.97187,223.5 h -42.9002 z m -52.86336,-31.7649 H 280.1708 L 269.62157,92.455121 Z"/>
  </g>
  <path fill="#2e8b57" d="M 240.77411,150 A 50.387058,50 0 0 1 190.38705,200 50.387058,50 0 0 1 140,150 a 50.387058,50 0 0 1 50.38705,-50 50.387058,50 0 0 1 50.38706,50 z"/>
  <g fill="#2e8b57" stroke="#2e8b57" stroke-width="0.5" font-style="italic" font-weight="bold" font-size="85px" line-height="25px" font-family="sans-serif" letter-spacing="0px" word-spacing="0px" aria-label="LABS">
    <path fill="#2e8b57" stroke="#2e8b57" stroke-width="0.5" d="m 119.28125,220.1875 h 6.34375 l -8,41.40625 h 22.71875 l -1.03125,5.25 H 110.25 Z"/>
    <path fill="#2e8b57" stroke="#2e8b57" stroke-width="0.5" d="m 167.71875,220.1875 h 7.15625 l 8.65625,46.65625 H 176.9375 L 175,254.875 h -21 l -6.59375,11.96875 H 140.75 Z M 170,226.40625 156.90625,249.625 h 17.125 z"/>
    <path fill="#2e8b57" stroke="#2e8b57" stroke-width="0.5" d="m 198.71875,220.1875 h 16.125 q 6.5625,0 9.8125,2.4375 3.25,2.4375 3.25,7.34375 0,4.5 -2.8125,7.78125 -2.78125,3.25 -7.3125,3.9375 3.875,0.875 5.8125,3.34375 1.9375,2.46875 1.9375,6.59375 0,7.03125 -5.21875,11.125 -5.1875,4.09375 -14.21875,4.09375 H 189.625 Z m 1.53125,24.375 -3.3125,17.09375 h 10.15625 q 5.71875,0 8.8125,-2.625 Q 219,256.40625 219,251.625 q 0,-3.6875 -2.0625,-5.375 -2.03125,-1.6875 -6.5625,-1.6875 z m 3.71875,-19.1875 -2.75,14.0625 h 9.40625 q 5.03125,0 7.84375,-2.1875 2.84375,-2.1875 2.84375,-6.0625 0,-3.03125 -1.90625,-4.40625 Q 217.5,225.375 213.3125,225.375 Z"/>
    <path fill="#2e8b57" stroke="#2e8b57" stroke-width="0.5" d="m 270.375,221.71875 -1.21875,6.15625 Q 266,226.1875 262.875,225.34375 q -3.09375,-0.875 -6,-0.875 -5.65625,0 -9,2.46875 -3.34375,2.46875 -3.34375,6.5625 0,2.25 1.21875,3.46875 1.25,1.1875 6.375,2.5625 l 3.78125,0.9375 q 6.40625,1.65625 8.90625,4.21875 2.5,2.53125 2.5,7.125 0,7.0625 -5.5625,11.5 -5.53125,4.4375 -14.59375,4.4375 -3.71875,0 -7.46875,-0.75 -3.75,-0.71875 -7.53125,-2.21875 l 1.28125,-6.5 q 3.46875,2.15625 6.9375,3.25 3.5,1.09375 6.96875,1.09375 5.90625,0 9.46875,-2.625 3.5625,-2.625 3.5625,-6.84375 0,-2.8125 -1.4375,-4.25 -1.40625,-1.46875 -6.09375,-2.65625 l -3.78125,-0.96875 q -6.46875,-1.6875 -8.84375,-3.875 -2.34375,-2.21875 -2.34375,-6.1875 0,-6.96875 5.34375,-11.40625 5.375,-4.46875 13.96875,-4.46875 3.34375,0 6.625,0.59375 3.28125,0.59375 6.5625,1.78125 z"/>
  </g>
  <g fill="#fff" stroke="#fff" stroke-width="5" font-style="italic" font-weight="bold" font-size="85px" line-height="25px" font-family="sans-serif" letter-spacing="0px" word-spacing="0px" aria-label="N">
    <path fill="#fff" stroke="#fff" stroke-width="5" d="m 171.13747,122.79366 h 15.67708 l 12.46875,37.69792 7.32813,-37.69792 h 13.27083 l -10.60937,54.43229 H 193.5958 l -12.46875,-37.69791 -7.29166,37.69791 H 160.5281 Z"/>
  </g>
</svg>
